<?xml version="1.0" encoding="UTF-8"?>
<svg width="16px" height="16px" viewBox="0 0 16 16" version="1.1" xmlns="http://www.w3.org/2000/svg" xmlns:xlink="http://www.w3.org/1999/xlink">
  <!-- Generator: sketchtool 52.1 (67048) - http://www.bohemiancoding.com/sketch -->
  <title>2F84F0B4-A1C5-4A91-BF52-2645E79AA157</title>
  <desc>Created with sketchtool.</desc>
  <g id="Page-1" stroke="none" stroke-width="1" fill="none" fill-rule="evenodd">
    <g id="Weather-Dashboard" transform="translate(-32.000000, -642.000000)" fill-rule="nonzero">
      <g id="Icon-/-calender" transform="translate(30.000000, 640.000000)">
        <rect id="Rectangle" x="0" y="0" width="20" height="20"></rect>
        <path d="M5,5.27784495 L5,3.05556166 C5,2.74845107 5.18633626,2.5 5.41672163,2.5 C5.64699707,2.5 5.83333333,2.74845107 5.83333333,3.05556166 L5.83333333,5.27784495 C5.83333333,5.58488225 5.64699707,5.83333333 5.41672163,5.83333333 C5.18633626,5.83336997 5,5.58488225 5,5.27784495 Z M14.583402,5.83333333 C14.8135846,5.83333333 15,5.58488498 15,5.27785106 L15,3.05555556 C15,2.74844834 14.8135846,2.5 14.583402,2.5 C14.3531096,2.5 14.1666667,2.74844834 14.1666667,3.05555556 L14.1666667,5.27781442 C14.1666667,5.58484835 14.3531096,5.83333333 14.583402,5.83333333 Z M7.5,9.16666667 L5,9.16666667 L5,11.6666667 L7.5,11.6666667 L7.5,9.16666667 Z M5,15 L7.5,15 L7.5,12.5 L5,12.5 L5,15 Z M8.8,11.6666667 L11.3,11.6666667 L11.3,9.16666667 L8.8,9.16666667 L8.8,11.6666667 Z M8.8,15 L11.3,15 L11.3,12.5 L8.8,12.5 L8.8,15 Z M3.65389006,16.2504384 L3.65389006,8.40904322 L16.34611,8.40904322 L16.34611,17.5 C16.9833858,17.5 17.5,16.9912153 17.5,16.3635976 L17.5,6.24963652 C17.5,5.55937432 16.9409948,5 16.2503805,5 L15.769184,5 L15.769184,5.56829253 C15.769184,6.19410378 15.2518796,6.70461529 14.6154841,6.70461529 C13.9788984,6.70461529 13.4616321,6.19410378 13.4616321,5.56829253 L13.4616321,5 L6.53840592,5 L6.53840592,5.56829253 C6.53840592,6.19410378 6.02121574,6.70461529 5.38470611,6.70461529 C4.74804432,6.70461529 4.23081606,6.19410378 4.23081606,5.56829253 L4.23081606,5 L3.75019024,5 C3.05953794,5 2.5,5.55937432 2.5,6.24963652 L2.5,16.2504759 C2.5,16.9384523 3.05953794,17.5 3.75019024,17.5 L16.34611,17.5 L16.34611,16.3634524 L3.75019024,16.3634524 C3.69791191,16.3634149 3.65389006,16.3102429 3.65389006,16.2504384 Z M15,11.6666667 L15,9.16666667 L12.5,9.16666667 L12.5,11.6666667 L15,11.6666667 Z M15,15 L15,12.5 L12.5,12.5 L12.5,15 L15,15 Z" id="Shape" fill="#FFFFFF" opacity="0.900000036"></path>
      </g>
    </g>
  </g>
</svg>
