<?xml version="1.0" encoding="UTF-8"?>
<svg width="11px" height="16px" viewBox="0 0 11 16" version="1.1" xmlns="http://www.w3.org/2000/svg" xmlns:xlink="http://www.w3.org/1999/xlink">
  <!-- Generator: sketchtool 52.1 (67048) - http://www.bohemiancoding.com/sketch -->
  <title>65931909-0588-4A56-B130-E6A0877CAE86</title>
  <desc>Created with sketchtool.</desc>
  <g id="Page-1" stroke="none" stroke-width="1" fill="none" fill-rule="evenodd">
    <g id="Weather-Dashboard" transform="translate(-34.000000, -708.000000)" fill-rule="nonzero">
      <g id="d_fewclouds">
        <g id="Group-Clipped">
          <g id="Group-8" transform="translate(29.000000, 641.000000)">
            <g id="location">
              <g id="Group-10">
                <g id="Group-9" transform="translate(0.000000, 65.000000)">
                  <g id="Icon-/-location">
                    <rect id="Rectangle" x="0" y="0" width="20" height="20"></rect>
                    <path d="M10.4166667,2.08333333 C7.42990054,2.08333333 5,4.65569649 5,7.8175428 C5,11.7414929 9.84738603,17.502081 10.0537678,17.7453951 C10.2476177,17.9739582 10.5860662,17.9735561 10.7795656,17.7453951 C10.9859473,17.502081 15.8333333,11.7414929 15.8333333,7.8175428 C15.8332749,4.65569649 13.4034036,2.08333333 10.4166667,2.08333333 Z M10.4166823,10.4166667 C8.80839895,10.4166667 7.5,9.10825047 7.5,7.49998437 C7.5,5.89171824 8.80843022,4.58333333 10.4166823,4.58333333 C12.0249344,4.58333333 13.3333333,5.89174952 13.3333333,7.50001561 C13.3333333,9.10828174 12.0249344,10.4166667 10.4166823,10.4166667 Z" id="Shape" fill="#FFFFFF" opacity="0.900000036"></path>
                  </g>
                </g>
              </g>
            </g>
          </g>
        </g>
      </g>
    </g>
  </g>
</svg>
