<svg xmlns="http://www.w3.org/2000/svg" width="24" height="24" viewBox="0 0 24 24">
  <g fill="none" fill-rule="evenodd">
    <rect width="24" height="24"/>
    <path fill="#FFF" d="M10.0133333,15 C10.9200045,15 11.7555517,14.7733356 12.52,14.32 C13.2844483,13.8666644 13.8888867,13.2577816 14.3333333,12.4933333 C14.77778,11.7288851 15,10.8933379 15,9.98666667 C15,9.07999547 14.77778,8.24444827 14.3333333,7.48 C13.8888867,6.71555173 13.2844483,6.11111333 12.52,5.66666667 C11.7555517,5.22222 10.9200045,5 10.0133333,5 C9.10666213,5 8.27111493,5.22222 7.50666667,5.66666667 C6.7422184,6.11111333 6.1333356,6.71555173 5.68,7.48 C5.2266644,8.24444827 5,9.07999547 5,9.98666667 C5,10.8933379 5.2266644,11.7288851 5.68,12.4933333 C6.1333356,13.2577816 6.7422184,13.8666644 7.50666667,14.32 C8.27111493,14.7733356 9.10666213,15 10.0133333,15 Z M16.6049383,14.962963 L22,20.3580247 L20.3580247,22 L14.962963,16.5788752 L14.962963,15.7187929 L14.6502058,15.4320988 C14.0420637,15.9707389 13.3427109,16.3834005 12.5521262,16.670096 C11.7615415,16.9567916 10.9405621,17.1001372 10.0891632,17.1001372 C8.8033772,17.1001372 7.617518,16.7873831 6.53155007,16.1618656 C5.44558213,15.536348 4.58985224,14.6936496 3.96433471,13.6337449 C3.32144169,12.5390892 3,11.3488862 3,10.0631001 C3,8.7773141 3.31709788,7.5914549 3.95130316,6.50548697 C4.58550843,5.41951903 5.44558213,4.56378914 6.53155007,3.9382716 C7.617518,3.31275407 8.8033772,3 10.0891632,3 C11.3749493,3 12.5651523,3.32144169 13.659808,3.96433471 C14.7197127,4.58985224 15.5580673,5.44123833 16.1748971,6.51851852 C16.7917269,7.59579871 17.1001372,8.7773141 17.1001372,10.0631001 C17.1001372,10.9318745 16.9567916,11.7615415 16.670096,12.5521262 C16.3834005,13.3427109 15.9707389,14.0420637 15.4320988,14.6502058 L15.7187929,14.962963 L16.6049383,14.962963 Z"/>
  </g>
</svg>
