<?xml version="1.0" encoding="UTF-8"?>
<svg width="28px" height="28px" viewBox="0 0 28 28" version="1.1" xmlns="http://www.w3.org/2000/svg" xmlns:xlink="http://www.w3.org/1999/xlink">
  <!-- Generator: sketchtool 52.1 (67048) - http://www.bohemiancoding.com/sketch -->
  <title>56A71BAE-15B9-49DC-A730-B69CF475ABFB</title>
  <desc>Created with sketchtool.</desc>
  <g id="Page-1" stroke="none" stroke-width="1" fill="none" fill-rule="evenodd">
    <g id="Weather-Dashboard" transform="translate(-945.000000, -519.000000)">
      <g id="Group-17" transform="translate(760.000000, 479.000000)">
        <g id="Group-21-Copy" transform="translate(162.000000, 0.000000)">
          <g id="Icon-/-windspeed" transform="translate(22.000000, 39.000000)">
            <rect id="Rectangle" fill-rule="nonzero" x="0" y="0" width="30" height="30"></rect>
            <g id="if_performance-clock-speed_353431" transform="translate(1.250000, 1.250000)" fill="#93B7E5">
              <path d="M11.8308173,13.9543627 C11.8308173,13.1541667 12.2676442,12.465049 12.9059615,12.0978431 L12.8996154,12.0913725 L19.62125,7.88872549 L15.7924038,14.9319608 L15.7865865,14.9265686 C15.4386058,15.6162255 14.7415865,16.0928922 13.9282212,16.0928922 C12.7705769,16.0928922 11.8308173,15.1352451 11.8308173,13.9543627 Z M22.378125,3.76426471 L20.0453846,6.0570098 C18.4810577,4.72083333 16.9230769,3.86455882 14.2788462,3.69308824 L14.2788462,0.443235294 C17.4519231,0.626029412 20.2288942,1.84897059 22.378125,3.76426471 Z M23.8752885,12.9411765 C23.6743269,10.7843137 22.7816346,8.73691176 21.4246154,7.15161765 L23.6769712,4.86911765 C25.6040865,7.04754902 26.8452885,9.70588235 27.0589423,12.9411765 L23.8752885,12.9411765 Z M23.8900962,14.5588235 L27.0795673,14.5588235 C26.7405769,21.5686275 20.8397115,27.4627941 13.73625,27.4627941 C6.41543269,27.4627941 0.376009615,21.4187255 0.376009615,13.9543627 C0.376009615,6.76176471 5.81730769,0.863823529 12.6923077,0.44377451 L12.6923077,3.69362745 C7.93269231,4.10882353 3.54908654,8.53308824 3.54908654,13.9403431 C3.54908654,19.6204412 8.24841346,24.2275 13.8198077,24.2275 C19.1717308,24.2275 23.5532212,19.9509804 23.8900962,14.5588235 Z" id="Combined-Shape"></path>
            </g>
          </g>
        </g>
      </g>
    </g>
  </g>
</svg>
