<svg xmlns="http://www.w3.org/2000/svg" width="24" height="24" viewBox="0 0 24 24">
  <g fill="none" fill-rule="evenodd">
    <rect width="24" height="24"/>
    <path stroke="#93B7E5" stroke-linecap="round" stroke-linejoin="round" stroke-width="2" d="M7.59,0.59 C8.22943344,-0.0532334709 9.22166587,-0.185649514 10.0074001,0.267391566 C10.7931342,0.720432645 11.1756399,1.64549947 10.9393079,2.52115443 C10.7029759,3.39680939 9.90697846,4.00380802 9,4 L0,4.00001782 M10.59,15.41 C11.2294334,16.0532335 12.2216659,16.1856495 13.0074001,15.7326084 C13.7931342,15.2795674 14.1756399,14.3545005 13.9393079,13.4788456 C13.7029759,12.6031906 12.9069785,11.996192 12,12 L0,11.9999822 M15.73,3.73 C16.5304438,2.93158082 17.7671032,2.76972383 18.7460635,3.33525029 C19.7250238,3.90077676 20.2026103,5.05292057 19.9108396,6.14519034 C19.6190688,7.23746012 18.6305659,7.99797722 17.5,8 L0,8" transform="translate(2 4)"/>
  </g>
</svg>
